<mxfile host="Electron" agent="Mozilla/5.0 (Windows NT 10.0; Win64; x64) AppleWebKit/537.36 (KHTML, like Gecko) draw.io/24.7.8 Chrome/128.0.6613.36 Electron/32.0.1 Safari/537.36" version="24.7.8">
  <diagram id="otyLsMvBelg_K0wgVdOU" name="Method">
    <mxGraphModel dx="1900" dy="1721" grid="1" gridSize="10" guides="1" tooltips="1" connect="1" arrows="1" fold="1" page="1" pageScale="1" pageWidth="850" pageHeight="1100" math="0" shadow="0">
      <root>
        <mxCell id="0" />
        <mxCell id="1" parent="0" />
        <mxCell id="Gw5DuiOs25ERpZRS19eK-4" value="" style="edgeStyle=orthogonalEdgeStyle;rounded=1;orthogonalLoop=1;jettySize=auto;html=1;fontSize=24;strokeWidth=3;labelBackgroundColor=none;fontColor=default;" parent="1" source="Gw5DuiOs25ERpZRS19eK-2" target="Gw5DuiOs25ERpZRS19eK-3" edge="1">
          <mxGeometry relative="1" as="geometry" />
        </mxCell>
        <mxCell id="Gw5DuiOs25ERpZRS19eK-2" value="Start" style="ellipse;whiteSpace=wrap;html=1;fontStyle=1;fontSize=24;strokeWidth=3;rounded=1;labelBackgroundColor=none;" parent="1" vertex="1">
          <mxGeometry x="388" y="-160" width="75" height="40" as="geometry" />
        </mxCell>
        <mxCell id="Gw5DuiOs25ERpZRS19eK-10" value="" style="edgeStyle=orthogonalEdgeStyle;rounded=1;orthogonalLoop=1;jettySize=auto;html=1;fontSize=24;strokeWidth=3;labelBackgroundColor=none;fontColor=default;" parent="1" source="Gw5DuiOs25ERpZRS19eK-3" target="Gw5DuiOs25ERpZRS19eK-9" edge="1">
          <mxGeometry relative="1" as="geometry" />
        </mxCell>
        <mxCell id="Gw5DuiOs25ERpZRS19eK-3" value="Gather Information on Investment Trend, Companies, Revenues and Features" style="whiteSpace=wrap;html=1;fontSize=24;fontStyle=1;strokeWidth=3;rounded=1;labelBackgroundColor=none;" parent="1" vertex="1">
          <mxGeometry x="239" y="-70" width="372" height="100" as="geometry" />
        </mxCell>
        <mxCell id="Gw5DuiOs25ERpZRS19eK-16" value="" style="edgeStyle=orthogonalEdgeStyle;rounded=1;orthogonalLoop=1;jettySize=auto;html=1;fontSize=24;entryX=0;entryY=0.5;entryDx=0;entryDy=0;strokeWidth=3;labelBackgroundColor=none;fontColor=default;" parent="1" source="Gw5DuiOs25ERpZRS19eK-9" target="Gw5DuiOs25ERpZRS19eK-15" edge="1">
          <mxGeometry relative="1" as="geometry" />
        </mxCell>
        <mxCell id="Gw5DuiOs25ERpZRS19eK-27" value="" style="edgeStyle=orthogonalEdgeStyle;rounded=1;orthogonalLoop=1;jettySize=auto;html=1;fontSize=24;strokeWidth=3;labelBackgroundColor=none;fontColor=default;" parent="1" source="Gw5DuiOs25ERpZRS19eK-9" target="Gw5DuiOs25ERpZRS19eK-26" edge="1">
          <mxGeometry relative="1" as="geometry" />
        </mxCell>
        <mxCell id="Gw5DuiOs25ERpZRS19eK-9" value="Review Previous Research Papers" style="whiteSpace=wrap;html=1;fontSize=24;fontStyle=1;strokeWidth=3;rounded=1;labelBackgroundColor=none;" parent="1" vertex="1">
          <mxGeometry x="298" y="80" width="254.5" height="60" as="geometry" />
        </mxCell>
        <mxCell id="Gw5DuiOs25ERpZRS19eK-18" value="" style="edgeStyle=orthogonalEdgeStyle;rounded=1;orthogonalLoop=1;jettySize=auto;html=1;fontSize=24;strokeWidth=3;labelBackgroundColor=none;fontColor=default;" parent="1" source="Gw5DuiOs25ERpZRS19eK-15" target="Gw5DuiOs25ERpZRS19eK-17" edge="1">
          <mxGeometry relative="1" as="geometry" />
        </mxCell>
        <mxCell id="Gw5DuiOs25ERpZRS19eK-15" value="Select Regression Models" style="whiteSpace=wrap;html=1;fontSize=24;fontStyle=1;strokeWidth=3;rounded=1;labelBackgroundColor=none;" parent="1" vertex="1">
          <mxGeometry x="670" width="254.5" height="60" as="geometry" />
        </mxCell>
        <mxCell id="Gw5DuiOs25ERpZRS19eK-54" value="" style="edgeStyle=orthogonalEdgeStyle;rounded=1;orthogonalLoop=1;jettySize=auto;html=1;fontSize=24;strokeWidth=3;exitX=0;exitY=0.75;exitDx=0;exitDy=0;labelBackgroundColor=none;fontColor=default;" parent="1" source="c_dqIB3TIB5FPyNQvVh--3" target="Gw5DuiOs25ERpZRS19eK-53" edge="1">
          <mxGeometry relative="1" as="geometry" />
        </mxCell>
        <mxCell id="c_dqIB3TIB5FPyNQvVh--2" value="" style="edgeStyle=orthogonalEdgeStyle;rounded=1;orthogonalLoop=1;jettySize=auto;html=1;strokeWidth=3;labelBackgroundColor=none;fontColor=default;" parent="1" source="Gw5DuiOs25ERpZRS19eK-17" target="c_dqIB3TIB5FPyNQvVh--1" edge="1">
          <mxGeometry relative="1" as="geometry" />
        </mxCell>
        <mxCell id="Gw5DuiOs25ERpZRS19eK-17" value="&lt;div&gt;Regression Models&lt;/div&gt;" style="whiteSpace=wrap;html=1;fontSize=24;fontStyle=1;strokeWidth=3;rounded=1;labelBackgroundColor=none;" parent="1" vertex="1">
          <mxGeometry x="940" y="170" width="370" height="130" as="geometry" />
        </mxCell>
        <mxCell id="Gw5DuiOs25ERpZRS19eK-29" value="" style="edgeStyle=orthogonalEdgeStyle;rounded=1;orthogonalLoop=1;jettySize=auto;html=1;fontSize=24;strokeWidth=3;labelBackgroundColor=none;fontColor=default;" parent="1" source="Gw5DuiOs25ERpZRS19eK-26" target="Gw5DuiOs25ERpZRS19eK-28" edge="1">
          <mxGeometry relative="1" as="geometry" />
        </mxCell>
        <mxCell id="Gw5DuiOs25ERpZRS19eK-50" value="" style="edgeStyle=orthogonalEdgeStyle;rounded=1;orthogonalLoop=1;jettySize=auto;html=1;fontSize=24;strokeWidth=3;labelBackgroundColor=none;fontColor=default;" parent="1" source="Gw5DuiOs25ERpZRS19eK-26" target="Gw5DuiOs25ERpZRS19eK-49" edge="1">
          <mxGeometry relative="1" as="geometry" />
        </mxCell>
        <mxCell id="Gw5DuiOs25ERpZRS19eK-26" value="Data Selection" style="whiteSpace=wrap;html=1;fontSize=24;fontStyle=1;strokeWidth=3;rounded=1;labelBackgroundColor=none;" parent="1" vertex="1">
          <mxGeometry x="298" y="240" width="254.5" height="60" as="geometry" />
        </mxCell>
        <mxCell id="Gw5DuiOs25ERpZRS19eK-31" value="" style="edgeStyle=orthogonalEdgeStyle;rounded=1;orthogonalLoop=1;jettySize=auto;html=1;fontSize=24;strokeWidth=3;labelBackgroundColor=none;fontColor=default;" parent="1" source="Gw5DuiOs25ERpZRS19eK-28" target="Gw5DuiOs25ERpZRS19eK-30" edge="1">
          <mxGeometry relative="1" as="geometry" />
        </mxCell>
        <mxCell id="Gw5DuiOs25ERpZRS19eK-28" value="Feature Extraction" style="whiteSpace=wrap;html=1;fontSize=24;fontStyle=1;strokeWidth=3;rounded=1;labelBackgroundColor=none;" parent="1" vertex="1">
          <mxGeometry x="-36.5" y="255" width="254.5" height="30" as="geometry" />
        </mxCell>
        <mxCell id="Gw5DuiOs25ERpZRS19eK-33" value="" style="edgeStyle=orthogonalEdgeStyle;rounded=1;orthogonalLoop=1;jettySize=auto;html=1;fontSize=24;strokeWidth=3;entryX=1;entryY=0.5;entryDx=0;entryDy=0;labelBackgroundColor=none;fontColor=default;" parent="1" source="Gw5DuiOs25ERpZRS19eK-30" target="Gw5DuiOs25ERpZRS19eK-36" edge="1">
          <mxGeometry relative="1" as="geometry">
            <mxPoint x="90.80000000000018" y="370" as="targetPoint" />
            <Array as="points">
              <mxPoint x="91" y="386" />
            </Array>
          </mxGeometry>
        </mxCell>
        <mxCell id="Gw5DuiOs25ERpZRS19eK-30" value="Feature Encoding" style="whiteSpace=wrap;html=1;fontSize=24;fontStyle=1;strokeWidth=3;rounded=1;labelBackgroundColor=none;" parent="1" vertex="1">
          <mxGeometry x="-36.5" y="310" width="254.5" height="30" as="geometry" />
        </mxCell>
        <mxCell id="XGFZXHQkOiyYHxzRo6yJ-6" value="" style="edgeStyle=orthogonalEdgeStyle;rounded=1;orthogonalLoop=1;jettySize=auto;html=1;strokeWidth=3;labelBackgroundColor=none;fontColor=default;" parent="1" source="Gw5DuiOs25ERpZRS19eK-36" target="XGFZXHQkOiyYHxzRo6yJ-5" edge="1">
          <mxGeometry relative="1" as="geometry" />
        </mxCell>
        <mxCell id="Gw5DuiOs25ERpZRS19eK-36" value="Apply Correlation" style="whiteSpace=wrap;html=1;fontSize=24;fontStyle=1;strokeWidth=3;rounded=1;labelBackgroundColor=none;" parent="1" vertex="1">
          <mxGeometry x="-360" y="356" width="220" height="60" as="geometry" />
        </mxCell>
        <mxCell id="Gw5DuiOs25ERpZRS19eK-58" value="" style="edgeStyle=orthogonalEdgeStyle;rounded=1;orthogonalLoop=1;jettySize=auto;html=1;fontSize=24;strokeWidth=3;exitX=1;exitY=0.5;exitDx=0;exitDy=0;labelBackgroundColor=none;fontColor=default;" parent="1" source="Gw5DuiOs25ERpZRS19eK-40" target="Gw5DuiOs25ERpZRS19eK-57" edge="1">
          <mxGeometry relative="1" as="geometry" />
        </mxCell>
        <mxCell id="Gw5DuiOs25ERpZRS19eK-40" value="Prepare Data" style="whiteSpace=wrap;html=1;fontSize=24;fontStyle=1;strokeWidth=3;rounded=1;labelBackgroundColor=none;" parent="1" vertex="1">
          <mxGeometry x="350" y="450" width="254.5" height="62.5" as="geometry" />
        </mxCell>
        <mxCell id="Gw5DuiOs25ERpZRS19eK-46" value="" style="edgeStyle=orthogonalEdgeStyle;rounded=1;orthogonalLoop=1;jettySize=auto;html=1;fontSize=24;entryX=0;entryY=0.75;entryDx=0;entryDy=0;strokeWidth=3;exitX=1;exitY=0.5;exitDx=0;exitDy=0;labelBackgroundColor=none;fontColor=default;" parent="1" source="XGFZXHQkOiyYHxzRo6yJ-10" target="Gw5DuiOs25ERpZRS19eK-40" edge="1">
          <mxGeometry relative="1" as="geometry">
            <mxPoint x="80" y="610" as="targetPoint" />
            <Array as="points">
              <mxPoint x="180" y="675" />
              <mxPoint x="180" y="497" />
            </Array>
            <mxPoint x="230" y="690" as="sourcePoint" />
          </mxGeometry>
        </mxCell>
        <mxCell id="Gw5DuiOs25ERpZRS19eK-48" value="&lt;b style=&quot;font-size: 24px;&quot;&gt;Yes&lt;/b&gt;" style="text;html=1;strokeColor=none;fillColor=none;align=center;verticalAlign=middle;whiteSpace=wrap;rounded=1;fontSize=24;strokeWidth=3;labelBackgroundColor=none;" parent="1" vertex="1">
          <mxGeometry x="-100" y="640" width="60" height="30" as="geometry" />
        </mxCell>
        <mxCell id="Gw5DuiOs25ERpZRS19eK-52" value="" style="edgeStyle=orthogonalEdgeStyle;rounded=1;orthogonalLoop=1;jettySize=auto;html=1;fontSize=24;strokeWidth=3;labelBackgroundColor=none;fontColor=default;" parent="1" source="Gw5DuiOs25ERpZRS19eK-49" target="Gw5DuiOs25ERpZRS19eK-51" edge="1">
          <mxGeometry relative="1" as="geometry" />
        </mxCell>
        <mxCell id="Gw5DuiOs25ERpZRS19eK-49" value="Data Analysis" style="whiteSpace=wrap;html=1;fontSize=24;fontStyle=1;strokeWidth=3;rounded=1;labelBackgroundColor=none;" parent="1" vertex="1">
          <mxGeometry x="632.5" y="240" width="254.5" height="60" as="geometry" />
        </mxCell>
        <mxCell id="Gw5DuiOs25ERpZRS19eK-51" value="Data Visualization" style="whiteSpace=wrap;html=1;fontSize=24;fontStyle=1;strokeWidth=3;rounded=1;labelBackgroundColor=none;" parent="1" vertex="1">
          <mxGeometry x="632.5" y="330" width="254.5" height="60" as="geometry" />
        </mxCell>
        <mxCell id="Gw5DuiOs25ERpZRS19eK-56" value="" style="edgeStyle=orthogonalEdgeStyle;rounded=1;orthogonalLoop=1;jettySize=auto;html=1;fontSize=24;entryX=1;entryY=0.25;entryDx=0;entryDy=0;startArrow=none;exitX=-0.013;exitY=0.488;exitDx=0;exitDy=0;exitPerimeter=0;strokeWidth=3;labelBackgroundColor=none;fontColor=default;" parent="1" source="Gw5DuiOs25ERpZRS19eK-63" target="Gw5DuiOs25ERpZRS19eK-57" edge="1">
          <mxGeometry relative="1" as="geometry">
            <mxPoint x="1157" y="615" as="sourcePoint" />
            <mxPoint x="827" y="495" as="targetPoint" />
          </mxGeometry>
        </mxCell>
        <mxCell id="Gw5DuiOs25ERpZRS19eK-66" value="" style="edgeStyle=orthogonalEdgeStyle;rounded=1;orthogonalLoop=1;jettySize=auto;html=1;fontSize=24;entryX=0.518;entryY=0.026;entryDx=0;entryDy=0;entryPerimeter=0;exitX=1.004;exitY=0.525;exitDx=0;exitDy=0;exitPerimeter=0;strokeWidth=3;labelBackgroundColor=none;fontColor=default;" parent="1" source="Gw5DuiOs25ERpZRS19eK-53" target="Gw5DuiOs25ERpZRS19eK-63" edge="1">
          <mxGeometry relative="1" as="geometry">
            <mxPoint x="1125" y="535" as="targetPoint" />
          </mxGeometry>
        </mxCell>
        <mxCell id="Gw5DuiOs25ERpZRS19eK-53" value="" style="verticalLabelPosition=bottom;verticalAlign=top;html=1;shadow=0;dashed=0;strokeWidth=3;shape=mxgraph.ios.iArrowIcon;fillColor2=#135Ec8;fontSize=24;rotation=90;rounded=1;labelBackgroundColor=none;" parent="1" vertex="1">
          <mxGeometry x="1090" y="370" width="70" height="80" as="geometry" />
        </mxCell>
        <mxCell id="Gw5DuiOs25ERpZRS19eK-87" value="" style="edgeStyle=orthogonalEdgeStyle;rounded=1;orthogonalLoop=1;jettySize=auto;html=1;fontSize=24;strokeWidth=3;labelBackgroundColor=none;fontColor=default;" parent="1" source="Gw5DuiOs25ERpZRS19eK-57" target="Gw5DuiOs25ERpZRS19eK-86" edge="1">
          <mxGeometry relative="1" as="geometry" />
        </mxCell>
        <mxCell id="Gw5DuiOs25ERpZRS19eK-57" value="" style="whiteSpace=wrap;html=1;fontSize=24;fontStyle=1;strokeWidth=3;rounded=1;labelBackgroundColor=none;" parent="1" vertex="1">
          <mxGeometry x="470" y="595" width="537" height="360" as="geometry" />
        </mxCell>
        <mxCell id="Gw5DuiOs25ERpZRS19eK-70" value="" style="edgeStyle=orthogonalEdgeStyle;rounded=1;orthogonalLoop=1;jettySize=auto;html=1;fontSize=24;strokeWidth=3;labelBackgroundColor=none;fontColor=default;" parent="1" source="Gw5DuiOs25ERpZRS19eK-59" target="Gw5DuiOs25ERpZRS19eK-60" edge="1">
          <mxGeometry relative="1" as="geometry" />
        </mxCell>
        <mxCell id="Gw5DuiOs25ERpZRS19eK-59" value="Train the Model" style="whiteSpace=wrap;html=1;fontSize=24;fontStyle=1;strokeWidth=3;rounded=1;labelBackgroundColor=none;" parent="1" vertex="1">
          <mxGeometry x="557" y="602" width="254.5" height="42.5" as="geometry" />
        </mxCell>
        <mxCell id="Gw5DuiOs25ERpZRS19eK-83" value="" style="edgeStyle=orthogonalEdgeStyle;rounded=1;orthogonalLoop=1;jettySize=auto;html=1;fontSize=24;entryX=0.5;entryY=0;entryDx=0;entryDy=0;exitX=0.549;exitY=0.941;exitDx=0;exitDy=0;exitPerimeter=0;strokeWidth=3;labelBackgroundColor=none;fontColor=default;" parent="1" source="Gw5DuiOs25ERpZRS19eK-60" target="Gw5DuiOs25ERpZRS19eK-73" edge="1">
          <mxGeometry relative="1" as="geometry">
            <Array as="points">
              <mxPoint x="697" y="760" />
              <mxPoint x="892" y="760" />
            </Array>
          </mxGeometry>
        </mxCell>
        <mxCell id="Gw5DuiOs25ERpZRS19eK-60" value="Test the Model" style="whiteSpace=wrap;html=1;fontSize=24;fontStyle=1;strokeWidth=3;rounded=1;labelBackgroundColor=none;" parent="1" vertex="1">
          <mxGeometry x="557.25" y="673" width="254.5" height="42.5" as="geometry" />
        </mxCell>
        <mxCell id="Gw5DuiOs25ERpZRS19eK-63" value="" style="aspect=fixed;html=1;points=[];align=center;image;fontSize=12;image=img/lib/azure2/general/Storage_Queue.svg;strokeWidth=3;rounded=1;labelBackgroundColor=none;" parent="1" vertex="1">
          <mxGeometry x="1107" y="648" width="95.38" height="77.5" as="geometry" />
        </mxCell>
        <mxCell id="Gw5DuiOs25ERpZRS19eK-67" value="&lt;b style=&quot;font-size: 24px&quot;&gt;Model Queue&lt;/b&gt;" style="text;html=1;strokeColor=none;fillColor=none;align=center;verticalAlign=middle;whiteSpace=wrap;rounded=1;fontSize=24;strokeWidth=3;labelBackgroundColor=none;" parent="1" vertex="1">
          <mxGeometry x="1202.38" y="671.75" width="100" height="30" as="geometry" />
        </mxCell>
        <mxCell id="Gw5DuiOs25ERpZRS19eK-78" value="" style="edgeStyle=orthogonalEdgeStyle;rounded=1;orthogonalLoop=1;jettySize=auto;html=1;fontSize=24;strokeWidth=3;labelBackgroundColor=none;fontColor=default;" parent="1" source="Gw5DuiOs25ERpZRS19eK-73" target="Gw5DuiOs25ERpZRS19eK-77" edge="1">
          <mxGeometry relative="1" as="geometry" />
        </mxCell>
        <mxCell id="Gw5DuiOs25ERpZRS19eK-73" value="R2&lt;br&gt;MSE&lt;br&gt;MAPE" style="whiteSpace=wrap;html=1;fontSize=20;fontStyle=1;strokeWidth=3;rounded=1;labelBackgroundColor=none;" parent="1" vertex="1">
          <mxGeometry x="787" y="788" width="210" height="100" as="geometry" />
        </mxCell>
        <mxCell id="Gw5DuiOs25ERpZRS19eK-75" value="&lt;b&gt;Store Metrics&lt;/b&gt;" style="text;html=1;align=center;verticalAlign=middle;whiteSpace=wrap;rounded=1;fontSize=24;strokeWidth=3;labelBackgroundColor=none;" parent="1" vertex="1">
          <mxGeometry x="770" y="725.5" width="190" height="30" as="geometry" />
        </mxCell>
        <mxCell id="Gw5DuiOs25ERpZRS19eK-82" value="" style="edgeStyle=orthogonalEdgeStyle;rounded=1;orthogonalLoop=1;jettySize=auto;html=1;fontSize=24;exitX=0.5;exitY=1;exitDx=0;exitDy=0;strokeWidth=3;labelBackgroundColor=none;fontColor=default;" parent="1" source="Gw5DuiOs25ERpZRS19eK-77" target="Gw5DuiOs25ERpZRS19eK-81" edge="1">
          <mxGeometry relative="1" as="geometry" />
        </mxCell>
        <mxCell id="Gw5DuiOs25ERpZRS19eK-77" value="Compare" style="shape=process;whiteSpace=wrap;html=1;backgroundOutline=1;fontSize=24;fontStyle=1;strokeWidth=3;rounded=1;labelBackgroundColor=none;" parent="1" vertex="1">
          <mxGeometry x="590.5" y="785" width="156.5" height="60" as="geometry" />
        </mxCell>
        <mxCell id="Gw5DuiOs25ERpZRS19eK-85" value="" style="edgeStyle=orthogonalEdgeStyle;rounded=1;orthogonalLoop=1;jettySize=auto;html=1;fontSize=24;strokeWidth=3;labelBackgroundColor=none;fontColor=default;" parent="1" source="Gw5DuiOs25ERpZRS19eK-81" target="Gw5DuiOs25ERpZRS19eK-84" edge="1">
          <mxGeometry relative="1" as="geometry" />
        </mxCell>
        <mxCell id="Gw5DuiOs25ERpZRS19eK-81" value="Determine Most-Effective Model" style="whiteSpace=wrap;html=1;fontSize=24;fontStyle=1;strokeWidth=3;rounded=1;labelBackgroundColor=none;" parent="1" vertex="1">
          <mxGeometry x="528" y="887" width="192" height="60" as="geometry" />
        </mxCell>
        <mxCell id="Gw5DuiOs25ERpZRS19eK-84" value="Evaluate" style="whiteSpace=wrap;html=1;fontSize=24;fontStyle=1;strokeWidth=3;rounded=1;labelBackgroundColor=none;" parent="1" vertex="1">
          <mxGeometry x="827" y="912.5" width="180" height="42.5" as="geometry" />
        </mxCell>
        <mxCell id="Gw5DuiOs25ERpZRS19eK-86" value="Finalize Research" style="whiteSpace=wrap;html=1;fontSize=24;fontStyle=1;strokeWidth=3;rounded=1;labelBackgroundColor=none;" parent="1" vertex="1">
          <mxGeometry x="1107" y="795" width="190" height="90" as="geometry" />
        </mxCell>
        <mxCell id="XGFZXHQkOiyYHxzRo6yJ-2" value="" style="edgeStyle=orthogonalEdgeStyle;rounded=1;orthogonalLoop=1;jettySize=auto;html=1;entryX=0.75;entryY=0;entryDx=0;entryDy=0;strokeWidth=3;exitX=0;exitY=0.5;exitDx=0;exitDy=0;labelBackgroundColor=none;fontColor=default;" parent="1" source="4L3kTqoT-HSqCRE1YUXa-1" target="Gw5DuiOs25ERpZRS19eK-26" edge="1">
          <mxGeometry relative="1" as="geometry">
            <mxPoint x="660" y="150" as="sourcePoint" />
          </mxGeometry>
        </mxCell>
        <mxCell id="XGFZXHQkOiyYHxzRo6yJ-11" value="" style="edgeStyle=orthogonalEdgeStyle;rounded=1;orthogonalLoop=1;jettySize=auto;html=1;strokeWidth=3;labelBackgroundColor=none;fontColor=default;" parent="1" source="XGFZXHQkOiyYHxzRo6yJ-4" target="XGFZXHQkOiyYHxzRo6yJ-10" edge="1">
          <mxGeometry relative="1" as="geometry" />
        </mxCell>
        <mxCell id="XGFZXHQkOiyYHxzRo6yJ-4" value="If Correlation&amp;gt;0.5" style="rhombus;whiteSpace=wrap;html=1;fontSize=24;fontStyle=1;strokeWidth=3;rounded=1;labelBackgroundColor=none;" parent="1" vertex="1">
          <mxGeometry x="-400" y="622.5" width="300" height="105" as="geometry" />
        </mxCell>
        <mxCell id="XGFZXHQkOiyYHxzRo6yJ-7" value="" style="edgeStyle=orthogonalEdgeStyle;rounded=1;orthogonalLoop=1;jettySize=auto;html=1;strokeWidth=3;labelBackgroundColor=none;fontColor=default;" parent="1" source="XGFZXHQkOiyYHxzRo6yJ-5" target="XGFZXHQkOiyYHxzRo6yJ-4" edge="1">
          <mxGeometry relative="1" as="geometry" />
        </mxCell>
        <mxCell id="XGFZXHQkOiyYHxzRo6yJ-5" value="Get Correlation Values for All Features" style="whiteSpace=wrap;html=1;fontSize=24;fontStyle=1;strokeWidth=3;rounded=1;labelBackgroundColor=none;" parent="1" vertex="1">
          <mxGeometry x="-360" y="470" width="220" height="100" as="geometry" />
        </mxCell>
        <mxCell id="XGFZXHQkOiyYHxzRo6yJ-10" value="Select Features" style="whiteSpace=wrap;html=1;fontSize=24;fontStyle=1;strokeWidth=3;rounded=1;labelBackgroundColor=none;" parent="1" vertex="1">
          <mxGeometry x="-10" y="645" width="120" height="60" as="geometry" />
        </mxCell>
        <mxCell id="4L3kTqoT-HSqCRE1YUXa-1" value="Investment Trend Historical Data" style="whiteSpace=wrap;html=1;fontSize=24;fontStyle=1;strokeWidth=3;rounded=1;labelBackgroundColor=none;" parent="1" vertex="1">
          <mxGeometry x="632.5" y="140" width="254.5" height="60" as="geometry" />
        </mxCell>
        <mxCell id="c_dqIB3TIB5FPyNQvVh--4" value="" style="edgeStyle=orthogonalEdgeStyle;rounded=1;orthogonalLoop=1;jettySize=auto;html=1;strokeWidth=3;labelBackgroundColor=none;fontColor=default;" parent="1" source="c_dqIB3TIB5FPyNQvVh--1" target="c_dqIB3TIB5FPyNQvVh--3" edge="1">
          <mxGeometry relative="1" as="geometry" />
        </mxCell>
        <mxCell id="c_dqIB3TIB5FPyNQvVh--1" value="Hyperparameter Tuning" style="whiteSpace=wrap;html=1;fontSize=24;fontStyle=1;strokeWidth=3;rounded=1;labelBackgroundColor=none;" parent="1" vertex="1">
          <mxGeometry x="1380" y="120" width="370" height="70" as="geometry" />
        </mxCell>
        <mxCell id="c_dqIB3TIB5FPyNQvVh--3" value="Prepare Tuned Models" style="whiteSpace=wrap;html=1;fontSize=24;fontStyle=1;strokeWidth=3;rounded=1;labelBackgroundColor=none;" parent="1" vertex="1">
          <mxGeometry x="1380" y="270" width="370" height="70" as="geometry" />
        </mxCell>
      </root>
    </mxGraphModel>
  </diagram>
</mxfile>
